<svg width="36" height="36" viewBox="0 0 36 36" fill="none" xmlns="http://www.w3.org/2000/svg">
<g clip-path="url(#clip0_4175_336)">
<path d="M8.76855 33.03L9.51111 32.6475L10.4739 34.5162L9.73131 34.8988L8.76855 33.03Z" fill="white"/>
<path d="M2.77148 34.5049L3.73424 32.6361L4.47679 33.0187L3.51404 34.8874L2.77148 34.5049Z" fill="white"/>
<path d="M6.19336 35.9663L6.24591 33.8642L7.08118 33.8851L7.02863 35.9872L6.19336 35.9663Z" fill="white"/>
<path d="M26.458 1.48853L27.2006 1.10597L28.1633 2.97473L27.4208 3.35728L26.458 1.48853Z" fill="white"/>
<path d="M32.4609 2.96948L33.4237 1.10073L34.1662 1.48328L33.2035 3.35203L32.4609 2.96948Z" fill="white"/>
<path d="M29.8613 2.09497L29.9139 -0.00711831L30.7491 0.0137634L30.6966 2.11585L29.8613 2.09497Z" fill="white"/>
<path d="M32.3598 30.1323C32.4155 30.1323 32.4712 30.1183 32.5199 30.0835L32.4921 27.9814L23.1162 27.9884L23.1441 30.1531C23.1928 30.1879 23.2485 30.2019 23.3111 30.2019L32.3598 30.1323Z" fill="white"/>
<path d="M22.2666 31.0719L22.3362 35.6729H33.494L33.4244 30.9814L22.2666 31.0719Z" fill="white"/>
<path d="M33.3269 19.6704L32.1018 15.8491C32.0322 15.7307 31.9 15.6611 31.7607 15.6611C31.4475 15.6611 31.1482 15.8212 30.9672 16.0788C30.7167 16.5173 30.6262 17.0324 30.7027 17.5335C30.8071 18.1739 31.0716 19.8027 31.1969 20.5544C31.2387 20.7911 31.2596 20.9372 31.2596 20.9442L31.3153 21.2713L31.009 21.3966C30.7723 21.508 30.5566 21.6472 30.3547 21.8073C30.0763 22.03 29.8466 22.2945 29.6656 22.6008C29.4916 22.9071 29.3245 23.2273 29.1714 23.5544L28.4127 23.1994C28.531 22.9488 28.6563 22.6983 28.7886 22.4616L22.7607 24.9813C22.8025 25.7679 23.1157 26.5126 23.6587 27.0834C23.6795 27.1043 23.7004 27.1321 23.7283 27.153L32.0322 27.1461C32.06 27.1043 32.0879 27.0556 32.1157 27.0138C32.3593 26.6379 32.5682 26.2969 32.5682 26.2899L32.5751 26.276C32.6447 26.1646 32.7004 26.0463 32.7352 25.921L33.9116 21.5498L33.5635 20.457L33.3269 19.6704Z" fill="white"/>
<path d="M34.9144 18.0419L29.4852 5.05345L24.39 7.18338C24.0699 7.31563 23.694 7.1625 23.5617 6.84232C23.52 6.73791 23.5061 6.61958 23.52 6.50821C23.5826 6.08362 23.687 5.03257 23.3668 4.42004C22.7891 3.34116 21.4457 2.93744 20.3668 3.51517C19.288 4.0929 18.8842 5.43628 19.462 6.51517C19.7404 7.03025 20.2067 7.41308 20.7636 7.5871C21.0003 7.6567 21.1603 7.86552 21.1743 8.10914C21.1882 8.35276 21.042 8.58246 20.8193 8.6799L15.3135 10.949C15.39 11.0395 15.4527 11.137 15.5014 11.2483C15.745 11.7913 16.0791 12.543 16.4272 13.3156C16.6151 13.7193 16.803 14.137 16.9701 14.5337C17.1511 14.9374 17.3181 15.3133 17.4643 15.6335C18.2369 14.137 20.0745 13.5523 21.571 14.3249C22.8587 14.9931 23.5061 16.4757 23.1023 17.8678V17.8748C23.1023 17.8887 23.0954 17.9026 23.0954 17.9166C23.0188 18.2159 22.9005 18.5012 22.7404 18.7727C22.7125 18.8214 22.6847 18.8632 22.6499 18.9119C22.3715 19.3156 22.0026 19.6497 21.571 19.8794C20.9724 20.1927 20.1789 20.2344 19.4968 20.1787L21.3552 24.3272C21.404 24.4316 21.4318 24.5361 21.4527 24.6405L21.933 24.4386L22.7613 24.0906L29.9376 21.0906C30.0838 20.9792 30.2369 20.8748 30.397 20.7843C30.2787 20.0813 29.9933 18.3412 29.8889 17.666C29.7845 16.9699 29.9098 16.26 30.2648 15.6474L30.2717 15.6335C30.6128 15.1184 31.1905 14.8191 31.803 14.833C32.2485 14.84 32.6592 15.0975 32.861 15.4943L32.875 15.5291L34.1 19.3504L34.4411 19.2112C34.8935 19.0163 35.1023 18.4943 34.9144 18.0419Z" fill="white"/>
<path d="M13.8728 5.59635L13.8101 0.828369H2.65234L2.71499 5.68684L13.8728 5.59635Z" fill="white"/>
<path d="M3.77923 6.53603C3.72355 6.53603 3.66786 6.54995 3.61914 6.58475L3.64698 8.68684V8.77037C3.69571 8.80517 3.75139 8.82605 3.81404 8.81909L12.8419 8.74948L12.8488 8.76341H12.8628C12.9184 8.76341 12.9741 8.74948 13.0229 8.71468L12.9881 6.51515C12.9393 6.48034 12.8836 6.45946 12.821 6.46642L3.77923 6.53603Z" fill="white"/>
<path d="M18.5294 20.0535C18.4389 19.8516 18.4598 19.615 18.592 19.434C18.592 19.427 18.599 19.427 18.599 19.4201C18.7312 19.2391 18.9609 19.1416 19.1837 19.1695C19.6083 19.2182 20.6593 19.3017 21.2649 18.9607C21.7591 18.6822 22.128 18.2229 22.2881 17.6799C22.5247 16.6706 22.0236 15.6335 21.0839 15.1811C19.9841 14.6521 18.6616 15.1184 18.1326 16.2182C18.0839 16.3157 18.0421 16.4201 18.0143 16.5245C17.9168 16.8307 17.5967 17.0048 17.2834 16.9073C17.1164 16.8586 16.9841 16.7333 16.9145 16.5732C16.7405 16.1625 16.476 15.5222 16.1837 14.8261C16.1837 14.8261 16.1837 14.8191 16.1767 14.8191C15.6755 13.6985 15.0909 12.3969 14.7289 11.5755C14.6871 11.485 14.6175 11.4154 14.5271 11.3806C14.4853 11.3667 14.4435 11.3528 14.3948 11.3528C14.3461 11.3528 14.2904 11.3667 14.2486 11.3876L14.1721 11.4224L13.3577 11.7843L7.1071 14.5825C6.75907 15.1184 6.29271 15.5639 5.73587 15.8771C5.8542 16.5802 6.13958 18.3203 6.24399 18.9955C6.35536 19.6915 6.22311 20.4015 5.86812 21.014L5.86116 21.028C5.53401 21.5222 4.98413 21.8215 4.39248 21.8354C4.3716 21.8354 4.35072 21.8354 4.32288 21.8354C3.8774 21.8284 3.46673 21.5709 3.26487 21.1741L3.25095 21.1393L1.9006 16.9143L1.53169 17.0813C1.08622 17.2832 0.884361 17.8122 1.08622 18.2577L6.93308 31.3226L11.6523 29.2066C11.0746 28.7611 10.4412 28.1486 10.2115 27.4595C9.67554 25.8655 10.5317 24.1324 12.1257 23.5964C13.7196 23.0604 15.4528 23.9166 15.9888 25.5106C16.1767 26.0674 16.1976 26.666 16.0514 27.2368C17.2417 26.7008 19.1767 25.8377 20.3252 25.3226C20.5827 25.2043 20.7011 24.905 20.5827 24.6474L18.5294 20.0535Z" fill="white"/>
<path d="M2.67937 16.58L4.03668 20.8189C4.10629 20.9373 4.23854 21.0069 4.37775 21.0069C4.69097 21.0069 4.99028 20.8468 5.16429 20.5892C5.41487 20.1507 5.50536 19.6356 5.42183 19.1345C5.28958 18.2922 4.86499 15.7516 4.86499 15.7238L4.84411 15.6124L4.8093 15.3967L5.11557 15.2714C5.12253 15.2714 5.97868 14.9025 6.45199 14.0672C6.47288 14.0254 6.49376 13.9906 6.5216 13.9489L7.64921 13.4477L13.2316 10.9489C13.0854 10.4407 12.8209 9.97438 12.459 9.59155L4.00188 9.66116C3.75826 10.037 3.54944 10.3781 3.54944 10.3851L3.54248 10.399C3.47288 10.5103 3.41719 10.6287 3.38239 10.754L2.20605 15.1252L2.42183 15.7934L2.67937 16.58Z" fill="white"/>
</g>
<defs>
<clipPath id="clip0_4175_336">
<rect width="36" height="36" fill="white"/>
</clipPath>
</defs>
</svg>
