<svg width="36" height="36" viewBox="0 0 36 36" fill="none" xmlns="http://www.w3.org/2000/svg">
<g clip-path="url(#clip0_4175_537)">
<path d="M3.20646 12.73C3.20646 12.1475 2.73424 11.6753 2.15177 11.6753H1.05469C0.472219 11.6753 0 12.1475 0 12.73C0 13.3124 0.472219 13.7847 1.05469 13.7847H2.15177C2.73424 13.7847 3.20646 13.3124 3.20646 12.73Z" fill="white"/>
<path d="M3.75621 4.26382C4.70542 4.26382 5.17835 3.09304 4.47571 2.4378L3.67338 1.68954C3.24735 1.29234 2.57995 1.31568 2.18275 1.74157C1.78549 2.16759 1.80883 2.83493 2.23478 3.23219C2.88306 3.76136 3.11263 4.26382 3.75621 4.26382Z" fill="white"/>
<path d="M3.03715 21.3322L2.23482 22.0804C1.8088 22.4776 1.78552 23.145 2.18272 23.571C2.58012 23.9971 3.24739 24.0203 3.67341 23.6231L4.47575 22.8749C4.90177 22.4776 4.92505 21.8102 4.52785 21.3843C4.13051 20.9582 3.46318 20.9349 3.03715 21.3322Z" fill="white"/>
<path d="M34.9457 11.5278H33.8486C33.2662 11.5278 32.7939 12.0001 32.7939 12.5825C32.7939 13.165 33.2662 13.6372 33.8486 13.6372H34.9457C35.5282 13.6372 36.0004 13.165 36.0004 12.5825C36.0004 12.0001 35.5282 11.5278 34.9457 11.5278Z" fill="white"/>
<path d="M32.9635 21.3321C32.5374 20.935 31.8701 20.9582 31.4728 21.3842C31.0756 21.8102 31.0988 22.4775 31.5249 22.8748L32.3272 23.623C32.7541 24.021 33.4214 23.996 33.8179 23.5709C34.2151 23.1449 34.1918 22.4775 33.7658 22.0803L32.9635 21.3321Z" fill="white"/>
<path d="M32.9634 3.98047L33.7658 3.23227C34.1918 2.83501 34.2151 2.1676 33.8178 1.74165C33.4205 1.31569 32.7531 1.29228 32.3272 1.68962L31.5248 2.43781C31.0988 2.83508 31.0756 3.50248 31.4728 3.92844C31.8702 4.35446 32.5376 4.37766 32.9634 3.98047Z" fill="white"/>
<path d="M12.0234 28.582C12.0234 29.8939 12.8268 31.0215 13.9672 31.5H22.0328C23.1732 31.0215 23.9766 29.8939 23.9766 28.582V27.0703H12.0234V28.582Z" fill="white"/>
<path d="M14.1328 34.9453C14.1328 35.5275 14.6053 36 15.1875 36H20.8125C21.3947 36 21.8672 35.5275 21.8672 34.9453V33.6094H14.1328V34.9453Z" fill="white"/>
<path d="M30.2026 12.6562C33.2036 9.5928 31.4696 4.42595 27.2701 3.75707C26.2158 0.25192 21.9798 -1.14336 19.0547 1.05728V25.3476H22.2188C24.5995 25.3476 26.6308 23.784 27.2805 21.5537C31.4572 20.8801 33.2092 15.7255 30.2026 12.6562ZM21.1641 6.39843C21.1641 5.81596 21.6363 5.34374 22.2188 5.34374C22.8012 5.34374 23.2734 5.81596 23.2734 6.39843C23.2734 7.4785 23.6829 7.67636 24.4985 8.07046C25.2707 8.44354 26.4375 9.0073 26.4375 10.6172C26.4375 11.1996 25.9653 11.6719 25.3828 11.6719C24.8003 11.6719 24.3281 11.1996 24.3281 10.6172C24.3281 10.3858 24.3281 10.3308 23.5808 9.96974C22.677 9.53303 21.1641 8.80206 21.1641 6.39843ZM27.4198 16.3488C26.2056 18.0314 24.3299 18.7296 23.7958 18.7296C23.3369 18.7296 22.9147 18.4278 22.7822 17.9646C22.6221 17.4046 22.9463 16.8208 23.5063 16.6606C24.3782 16.4113 25.1663 15.8669 25.7093 15.1144C26.0502 14.642 26.7095 14.5355 27.1818 14.8763C27.6541 15.2172 27.7607 15.8764 27.4198 16.3488Z" fill="white"/>
<path d="M16.9454 25.3476V1.05728C14.0205 -1.14329 9.78438 0.251778 8.73012 3.75707C4.52817 4.42637 2.79785 9.59413 5.79759 12.6562C2.78991 15.7264 4.54491 20.8803 8.71964 21.5537C9.37151 23.7913 11.4071 25.3476 13.7814 25.3476H16.9454ZM11.5016 8.07046C12.3172 7.67636 12.7267 7.47857 12.7267 6.39843C12.7267 5.81596 13.1989 5.34374 13.7814 5.34374C14.3638 5.34374 14.8361 5.81596 14.8361 6.39843C14.8361 8.80206 13.3231 9.53303 12.4193 9.96974C11.672 10.3308 11.672 10.3858 11.672 10.6172C11.672 11.1996 11.1998 11.6719 10.6173 11.6719C10.0348 11.6719 9.56262 11.1996 9.56262 10.6172C9.56262 9.0073 10.7295 8.44354 11.5016 8.07046ZM13.2179 17.9646C13.0855 18.4277 12.6633 18.7296 12.2043 18.7296C11.6541 18.7296 9.90089 18.0368 8.73335 16.5519C8.37328 16.094 8.45266 15.4309 8.91054 15.0709C9.36855 14.7108 10.0315 14.7902 10.3915 15.2481C10.9168 15.9162 11.6569 16.4213 12.4938 16.6605C13.0539 16.8208 13.3781 17.4046 13.2179 17.9646Z" fill="white"/>
</g>
<defs>
<clipPath id="clip0_4175_537">
<rect width="36" height="36" fill="white"/>
</clipPath>
</defs>
</svg>
