<svg width="36" height="36" viewBox="0 0 36 36" fill="none" xmlns="http://www.w3.org/2000/svg">
<path d="M25.7168 25.7168C23.6556 27.778 20.915 28.9132 18 28.9132C15.0851 28.9132 12.3445 27.778 10.2833 25.7168C9.92078 25.3542 9.58989 24.9719 9.28916 24.574H5.29492C5.92246 25.2237 6.79996 26.1242 6.79996 26.1242L9.00398 30.3588L13.7121 31.1489L17.9839 33.2803L22.2576 31.1531L26.9643 30.3632L29.176 26.1337C29.176 26.1337 30.0593 25.2268 30.6891 24.574H26.7108C26.4102 24.9719 26.0793 25.3542 25.7168 25.7168Z" fill="white"/>
<path d="M10.2836 10.2832C12.3448 8.22203 15.0853 7.08684 18.0003 7.08684C20.9152 7.08684 23.6558 8.22203 25.717 10.2832C26.0795 10.6458 26.4104 11.0281 26.7112 11.426H30.6852C30.0577 10.7763 29.1802 9.87585 29.1802 9.87585L26.9762 5.64121L22.268 4.85111L17.9962 2.71973L13.7225 4.84689L9.01575 5.63685L6.80407 9.86629C6.80407 9.86629 5.9208 10.7732 5.29102 11.426H9.28948C9.59013 11.0281 9.92102 10.6458 10.2836 10.2832Z" fill="white"/>
<path d="M17.9997 9.12598C15.6294 9.12598 13.4009 10.049 11.7248 11.7251C8.2649 15.1852 8.2649 20.8149 11.7248 24.2749C13.4009 25.9511 15.6294 26.8741 17.9997 26.8741C20.3701 26.8741 22.5985 25.9511 24.2746 24.2749C27.7346 20.8149 27.7346 15.1852 24.2746 11.7251C22.5985 10.049 20.37 9.12598 17.9997 9.12598ZM16.6133 22.3191L12.9853 18.6911L14.4769 17.1995L16.6133 19.3361L21.5226 14.4268L23.0141 15.9183L16.6133 22.3191Z" fill="white"/>
<path d="M28.0029 13.4651C29.302 16.339 29.302 19.661 28.0029 22.5348H35.9997L34.617 18L35.9997 13.4651H28.0029Z" fill="white"/>
<path d="M7.99678 13.4651H0L1.31477 18L0 22.5348H7.99678C6.69776 19.661 6.69769 16.3389 7.99678 13.4651Z" fill="white"/>
</svg>
