<svg width="256" height="63" viewBox="0 0 256 63" fill="none" xmlns="http://www.w3.org/2000/svg">
<g clip-path="url(#clip0_4042_1658)">
<path d="M51.8927 0H0V62.4H51.8927V0Z" fill="white"/>
<path fill-rule="evenodd" clip-rule="evenodd" d="M21.2222 5.42285H15.4051H9.58791L7.39395 16.8296H15.4051H23.4154L21.2222 5.42285Z" fill="#0C0D12"/>
<path d="M15.8691 16.54H14.941V18.8603H15.8691V16.54Z" fill="#0C0D12"/>
<path fill-rule="evenodd" clip-rule="evenodd" d="M34.8358 34.181V34.156C34.8358 33.4485 34.5991 32.9424 34.1255 32.6519C33.8927 32.511 33.6285 32.4287 33.3561 32.4121H27.1435C26.9115 32.5574 26.2754 32.9635 25.6243 33.4414L25.4397 33.5765C24.9946 33.903 24.6102 34.1833 24.3719 34.4192C23.9702 34.8167 24.0562 35.9202 24.2022 36.5223V36.5317V36.5411V36.5504V36.5614C24.3601 37.7328 24.907 37.8765 24.9835 37.889H30.7075L30.7265 38.0273L30.7517 38.2116L32.327 49.5207H35.292L35.3772 41.9547L34.8358 34.181Z" fill="#0C0D12"/>
<path fill-rule="evenodd" clip-rule="evenodd" d="M28.3289 58.0039H31.4557L30.5576 61.4542H28.4007L28.3289 58.0039Z" fill="#0C0D12"/>
<path d="M19.0425 18.4688H13.1204V20.1119H17.4933L20.388 61.4813H22.0525L19.0425 18.4688Z" fill="#0C0D12"/>
<path d="M7.95349 61.482H9.6179L12.2222 24.265H17.2178V22.6211H10.6723L7.95349 61.482Z" fill="#0C0D12"/>
<path d="M16.3205 22.6211H14.6601V24.2642H16.3205V22.6211Z" fill="#0C0D12"/>
<path d="M16.3205 24.8242H14.6601V61.4828H16.3205V24.8242Z" fill="#0C0D12"/>
<path d="M16.3205 19.875H14.6601V22.0617H16.3205V19.875Z" fill="#0C0D12"/>
<path d="M28.9508 21.1904C28.8172 21.2321 28.6942 21.3015 28.59 21.3941C28.4857 21.4866 28.4026 21.6001 28.3463 21.727V30.8127H34.0285H34.0451L34.0687 30.8182C34.9992 31.0228 35.6605 31.6437 35.9802 32.6144C36.1202 33.046 36.1874 33.4974 36.179 33.9506L36.5286 38.581L51.9969 38.5529V21.1904H28.9508Z" fill="#0C0D12"/>
<path d="M38.0549 40.0967H37.4338C37.3226 40.1334 36.8538 40.345 36.7551 41.3259C36.6154 42.7051 36.8262 48.8794 36.8285 48.9403V48.9864V49.0052L36.823 49.0302C36.8056 49.1231 36.8025 49.3566 37.156 49.4698H52.0024V40.1295L38.0549 40.0967Z" fill="#0C0D12"/>
<path d="M31.2481 50.9788H30.9183L30.9001 50.8406L30.8748 50.6555L29.347 39.3838H25.6378C25.9124 44.7771 26.5011 54.925 26.8215 55.8169C27.1175 56.6478 27.505 56.8204 27.5879 56.8485H52.0063V50.9788H31.2481Z" fill="#0C0D12"/>
</g>
<path d="M69.696 0.916195V21.1082H81.568V23.7002H66.72V0.916195H69.696ZM91.9575 24.2442C88.7575 24.2442 86.1975 23.1242 84.2135 20.8842C82.1975 18.7082 81.2055 15.8282 81.2055 12.3082C81.2055 8.85219 82.1975 6.00419 84.2135 3.79619C86.1975 1.62019 88.7575 0.500195 91.9575 0.500195C95.1575 0.500195 97.7495 1.62019 99.7655 3.79619C101.75 6.03619 102.742 8.85219 102.742 12.3082C102.742 15.8602 101.75 18.7402 99.7655 20.9162C97.7175 23.1562 95.1255 24.2442 91.9575 24.2442ZM86.3895 19.0602C87.7975 20.7562 89.6855 21.5882 91.9895 21.5882C94.2935 21.5882 96.1495 20.7562 97.5895 19.0602C98.9975 17.3962 99.7015 15.1562 99.7015 12.3082C99.7015 9.52419 98.9655 7.31619 97.5575 5.65219C96.1175 3.98819 94.2615 3.15619 91.9895 3.15619C89.6855 3.15619 87.8295 3.98819 86.3895 5.65219C84.9495 7.31619 84.2455 9.52419 84.2455 12.3082C84.2455 15.1242 84.9495 17.3962 86.3895 19.0602ZM116.302 24.2442C113.102 24.2442 110.542 23.1242 108.558 20.8842C106.542 18.7082 105.55 15.8282 105.55 12.3082C105.55 8.85219 106.542 6.00419 108.558 3.79619C110.542 1.62019 113.102 0.500195 116.302 0.500195C119.502 0.500195 122.094 1.62019 124.111 3.79619C126.094 6.03619 127.087 8.85219 127.087 12.3082C127.087 15.8602 126.094 18.7402 124.111 20.9162C122.062 23.1562 119.47 24.2442 116.302 24.2442ZM110.734 19.0602C112.142 20.7562 114.03 21.5882 116.334 21.5882C118.638 21.5882 120.494 20.7562 121.934 19.0602C123.342 17.3962 124.046 15.1562 124.046 12.3082C124.046 9.52419 123.31 7.31619 121.903 5.65219C120.462 3.98819 118.606 3.15619 116.334 3.15619C114.03 3.15619 112.174 3.98819 110.734 5.65219C109.294 7.31619 108.59 9.52419 108.59 12.3082C108.59 15.1242 109.294 17.3962 110.734 19.0602ZM130.567 0.916195H139.944C142.216 0.916195 144.007 1.4922 145.319 2.61219C146.6 3.76419 147.272 5.36419 147.272 7.44419C147.272 9.62019 146.6 11.3162 145.319 12.4682C144.007 13.6202 142.184 14.1962 139.88 14.1962H133.543V23.7002H130.567V0.916195ZM133.543 11.6042H139.944C141.288 11.6042 142.376 11.2522 143.144 10.5482C143.912 9.84419 144.295 8.82019 144.295 7.47619C144.295 4.85219 142.792 3.50819 139.784 3.50819H133.543V11.6042ZM165.669 24.1802C159.845 24.1802 156.741 21.5562 156.357 16.3082H159.205C159.493 19.9562 161.669 21.7482 165.765 21.7482C167.653 21.7482 169.093 21.3962 170.085 20.6602C171.077 19.9562 171.589 18.9002 171.589 17.5562C171.589 16.4682 171.205 15.6362 170.469 14.9962C169.733 14.3562 168.485 13.8762 166.757 13.4922L163.557 12.8202C161.413 12.3722 159.813 11.7002 158.757 10.7722C157.669 9.84419 157.157 8.53219 157.157 6.86819C157.157 4.8842 157.861 3.31619 159.269 2.16419C160.677 1.01219 162.693 0.404194 165.253 0.404194C167.781 0.404194 169.797 1.01219 171.269 2.19619C172.741 3.4122 173.573 5.10819 173.765 7.28419H170.917C170.789 5.84419 170.213 4.7562 169.253 3.98819C168.261 3.22019 166.885 2.83619 165.157 2.83619C163.493 2.83619 162.213 3.18819 161.317 3.82819C160.421 4.50019 159.973 5.42819 159.973 6.61219C159.973 7.5402 160.261 8.27619 160.901 8.82019C161.509 9.36419 162.533 9.78019 163.941 10.0682L167.941 10.9322C172.293 11.8602 174.469 14.0042 174.469 17.3962C174.469 19.4762 173.701 21.1402 172.197 22.3562C170.693 23.5722 168.517 24.1802 165.669 24.1802ZM177.54 0.916195H186.916C189.188 0.916195 190.98 1.4922 192.292 2.61219C193.572 3.76419 194.244 5.36419 194.244 7.44419C194.244 9.62019 193.572 11.3162 192.292 12.4682C190.98 13.6202 189.156 14.1962 186.852 14.1962H180.516V23.7002H177.54V0.916195ZM180.516 11.6042H186.916C188.26 11.6042 189.348 11.2522 190.116 10.5482C190.884 9.84419 191.268 8.82019 191.268 7.47619C191.268 4.85219 189.764 3.50819 186.756 3.50819H180.516V11.6042ZM214.054 23.7002H210.758L208.358 17.0122H198.694L196.23 23.7002H193.062L201.894 0.916195H205.254L214.054 23.7002ZM202.822 5.7802L199.654 14.4202H207.43L204.326 5.7802L203.59 3.4122L202.822 5.7802ZM225.112 24.2442C221.944 24.2442 219.448 23.1562 217.592 20.9162C215.736 18.7402 214.808 15.8602 214.808 12.3082C214.808 8.78819 215.736 5.9402 217.624 3.76419C219.48 1.58819 221.944 0.500195 225.08 0.500195C227.448 0.500195 229.528 1.17219 231.32 2.48419C233.048 3.79619 234.072 5.55619 234.456 7.7962H231.416C231.064 6.32419 230.36 5.2042 229.272 4.37219C228.184 3.5722 226.808 3.15619 225.208 3.15619C222.904 3.15619 221.08 3.98819 219.8 5.58819C218.488 7.22019 217.848 9.46019 217.848 12.3082C217.848 15.1882 218.488 17.4602 219.8 19.1242C221.08 20.7882 222.904 21.5882 225.208 21.5882C227.032 21.5882 228.504 21.0762 229.656 20.0202C230.808 18.9642 231.512 17.4282 231.8 15.4122H234.744C234.36 18.1642 233.304 20.3402 231.608 21.9082C229.88 23.4762 227.736 24.2442 225.112 24.2442ZM240.613 13.2682V21.1082H254.053V23.7002H237.637V0.916195H253.765V3.50819H240.613V10.6762H252.741V13.2682H240.613Z" fill="white"/>
<rect width="84" height="26" transform="translate(64 35.7002)" fill="white"/>
<path d="M76.84 56.0002C73.2 56.0002 71.26 54.3602 71.02 51.0802H72.8C72.98 53.3602 74.34 54.4802 76.9 54.4802C78.08 54.4802 78.98 54.2602 79.6 53.8002C80.22 53.3602 80.54 52.7002 80.54 51.8602C80.54 51.1802 80.3 50.6602 79.84 50.2602C79.38 49.8602 78.6 49.5602 77.52 49.3202L75.52 48.9002C74.18 48.6202 73.18 48.2002 72.52 47.6202C71.84 47.0402 71.52 46.2202 71.52 45.1802C71.52 43.9402 71.96 42.9602 72.84 42.2402C73.72 41.5202 74.98 41.1402 76.58 41.1402C78.16 41.1402 79.42 41.5202 80.34 42.2602C81.26 43.0202 81.78 44.0802 81.9 45.4402H80.12C80.04 44.5402 79.68 43.8602 79.08 43.3802C78.46 42.9002 77.6 42.6602 76.52 42.6602C75.48 42.6602 74.68 42.8802 74.12 43.2802C73.56 43.7002 73.28 44.2802 73.28 45.0202C73.28 45.6002 73.46 46.0602 73.86 46.4002C74.24 46.7402 74.88 47.0002 75.76 47.1802L78.26 47.7202C80.98 48.3002 82.34 49.6402 82.34 51.7602C82.34 53.0602 81.86 54.1002 80.92 54.8602C79.98 55.6202 78.62 56.0002 76.84 56.0002ZM82.8687 41.4602H94.2488V43.0802H89.4888V55.7002H87.6287V43.0802H82.8687V41.4602ZM105.402 54.7602C104.422 55.6002 103.062 56.0202 101.342 56.0202C99.6022 56.0202 98.2622 55.6002 97.3022 54.7602C96.3222 53.9602 95.8422 52.7602 95.8422 51.2002V41.4602H97.7022V51.2602C97.7022 52.2602 98.0022 53.0402 98.6222 53.5602C99.2222 54.1002 100.142 54.3602 101.342 54.3602C102.542 54.3602 103.442 54.1002 104.062 53.5602C104.662 53.0402 104.982 52.2602 104.982 51.2602V41.4602H106.842V51.2002C106.842 52.7602 106.362 53.9402 105.402 54.7602ZM109.437 41.4602H114.577C116.597 41.4602 118.137 42.0802 119.217 43.3202C120.297 44.5602 120.837 46.3202 120.837 48.5802C120.837 50.8202 120.257 52.5802 119.137 53.8202C117.997 55.0802 116.337 55.7002 114.177 55.7002H109.437V41.4602ZM111.297 54.0802H114.097C115.737 54.0802 116.937 53.6402 117.737 52.7202C118.537 51.8202 118.937 50.4402 118.937 48.5802C118.937 46.7202 118.537 45.3402 117.757 44.4402C116.977 43.5402 115.797 43.0802 114.197 43.0802H111.297V54.0802ZM124.755 55.7002H122.895V41.4602H124.755V55.7002ZM133.648 56.0402C131.648 56.0402 130.048 55.3402 128.808 53.9402C127.548 52.5802 126.928 50.7802 126.928 48.5802C126.928 46.4202 127.548 44.6402 128.808 43.2602C130.048 41.9002 131.648 41.2002 133.648 41.2002C135.648 41.2002 137.268 41.9002 138.528 43.2602C139.768 44.6602 140.388 46.4202 140.388 48.5802C140.388 50.8002 139.768 52.6002 138.528 53.9602C137.248 55.3602 135.628 56.0402 133.648 56.0402ZM130.168 52.8002C131.048 53.8602 132.228 54.3802 133.668 54.3802C135.108 54.3802 136.268 53.8602 137.168 52.8002C138.048 51.7602 138.488 50.3602 138.488 48.5802C138.488 46.8402 138.028 45.4602 137.148 44.4202C136.248 43.3802 135.088 42.8602 133.668 42.8602C132.228 42.8602 131.068 43.3802 130.168 44.4202C129.268 45.4602 128.828 46.8402 128.828 48.5802C128.828 50.3402 129.268 51.7602 130.168 52.8002Z" fill="#1D1F2C"/>
<defs>
<clipPath id="clip0_4042_1658">
<rect width="52" height="62.4" fill="white"/>
</clipPath>
</defs>
</svg>
