<svg width="256" height="63" viewBox="0 0 256 63" fill="none" xmlns="http://www.w3.org/2000/svg">
<g clip-path="url(#clip0_4037_1623)">
<path d="M51.8927 0H0V62.4H51.8927V0Z" fill="#EA2B7B"/>
<path fill-rule="evenodd" clip-rule="evenodd" d="M21.2222 5.42303H15.4051H9.58794L7.39398 16.8298H15.4051H23.4154L21.2222 5.42303Z" fill="white"/>
<path d="M15.8691 16.5401H14.941V18.8604H15.8691V16.5401Z" fill="white"/>
<path fill-rule="evenodd" clip-rule="evenodd" d="M34.8358 34.1806V34.1556C34.8358 33.448 34.5991 32.942 34.1255 32.6514C33.8927 32.5106 33.6285 32.4283 33.3561 32.4117H27.1435C26.9115 32.5569 26.2754 32.963 25.6243 33.441L25.4397 33.5761C24.9946 33.9025 24.6102 34.1829 24.3719 34.4188C23.9702 34.8163 24.0562 35.9198 24.2022 36.5219V36.5313V36.5407V36.55V36.561C24.3601 37.7324 24.907 37.8761 24.9835 37.8886H30.7075L30.7265 38.0268L30.7517 38.2111L32.327 49.5203H35.292L35.3772 41.9543L34.8358 34.1806Z" fill="white"/>
<path fill-rule="evenodd" clip-rule="evenodd" d="M28.3289 58.004H31.4557L30.5576 61.4543H28.4007L28.3289 58.004Z" fill="white"/>
<path d="M19.0425 18.4691H13.1204V20.1122H17.4933L20.388 61.4816H22.0525L19.0425 18.4691Z" fill="white"/>
<path d="M7.95349 61.4816H9.6179L12.2222 24.2646H17.2178V22.6207H10.6723L7.95349 61.4816Z" fill="white"/>
<path d="M16.3206 22.6207H14.6601V24.2638H16.3206V22.6207Z" fill="white"/>
<path d="M16.3206 24.8238H14.6601V61.4824H16.3206V24.8238Z" fill="white"/>
<path d="M16.3206 19.8748H14.6601V22.0615H16.3206V19.8748Z" fill="white"/>
<path d="M28.9508 21.1899C28.8172 21.2316 28.6942 21.301 28.5899 21.3936C28.4857 21.4861 28.4026 21.5996 28.3463 21.7265V30.8122H34.0285H34.045L34.0687 30.8177C34.9992 31.0223 35.6605 31.6432 35.9801 32.6139C36.1202 33.0455 36.1874 33.497 36.179 33.9502L36.5286 38.5805L51.9968 38.5524V21.1899H28.9508Z" fill="white"/>
<path d="M38.0549 40.0964H37.4338C37.3226 40.1331 36.8538 40.3447 36.7551 41.3256C36.6154 42.7048 36.8262 48.8791 36.8285 48.94V48.9861V49.0049L36.823 49.0298C36.8056 49.1228 36.8025 49.3563 37.156 49.4695H52.0024V40.1292L38.0549 40.0964Z" fill="white"/>
<path d="M31.2481 50.9784H30.9183L30.9001 50.8401L30.8748 50.6551L29.347 39.3834H25.6378C25.9124 44.7767 26.5011 54.9246 26.8215 55.8165C27.1175 56.6474 27.505 56.82 27.5879 56.8481H52.0063V50.9784H31.2481Z" fill="white"/>
</g>
<path d="M69.696 0.916012V21.108H81.568V23.7H66.72V0.916012H69.696ZM91.9575 24.244C88.7575 24.244 86.1975 23.124 84.2135 20.884C82.1975 18.708 81.2055 15.828 81.2055 12.308C81.2055 8.85201 82.1975 6.00401 84.2135 3.79601C86.1975 1.62001 88.7575 0.500011 91.9575 0.500011C95.1575 0.500011 97.7495 1.62001 99.7655 3.79601C101.75 6.03601 102.742 8.85201 102.742 12.308C102.742 15.86 101.75 18.74 99.7655 20.916C97.7175 23.156 95.1255 24.244 91.9575 24.244ZM86.3895 19.06C87.7975 20.756 89.6855 21.588 91.9895 21.588C94.2935 21.588 96.1495 20.756 97.5895 19.06C98.9975 17.396 99.7015 15.156 99.7015 12.308C99.7015 9.52401 98.9655 7.31601 97.5575 5.65201C96.1175 3.98801 94.2615 3.15601 91.9895 3.15601C89.6855 3.15601 87.8295 3.98801 86.3895 5.65201C84.9495 7.31601 84.2455 9.52401 84.2455 12.308C84.2455 15.124 84.9495 17.396 86.3895 19.06ZM116.302 24.244C113.102 24.244 110.542 23.124 108.558 20.884C106.542 18.708 105.55 15.828 105.55 12.308C105.55 8.85201 106.542 6.00401 108.558 3.79601C110.542 1.62001 113.102 0.500011 116.302 0.500011C119.502 0.500011 122.094 1.62001 124.111 3.79601C126.094 6.03601 127.087 8.85201 127.087 12.308C127.087 15.86 126.094 18.74 124.111 20.916C122.062 23.156 119.47 24.244 116.302 24.244ZM110.734 19.06C112.142 20.756 114.03 21.588 116.334 21.588C118.638 21.588 120.494 20.756 121.934 19.06C123.342 17.396 124.046 15.156 124.046 12.308C124.046 9.52401 123.31 7.31601 121.903 5.65201C120.462 3.98801 118.606 3.15601 116.334 3.15601C114.03 3.15601 112.174 3.98801 110.734 5.65201C109.294 7.31601 108.59 9.52401 108.59 12.308C108.59 15.124 109.294 17.396 110.734 19.06ZM130.567 0.916012H139.944C142.216 0.916012 144.007 1.49201 145.319 2.61201C146.6 3.76401 147.272 5.36401 147.272 7.44401C147.272 9.62001 146.6 11.316 145.319 12.468C144.007 13.62 142.184 14.196 139.88 14.196H133.543V23.7H130.567V0.916012ZM133.543 11.604H139.944C141.288 11.604 142.376 11.252 143.144 10.548C143.912 9.84401 144.295 8.82001 144.295 7.47601C144.295 4.85201 142.792 3.50801 139.784 3.50801H133.543V11.604Z" fill="#1D1F2C"/>
<path d="M165.669 24.18C159.845 24.18 156.741 21.556 156.357 16.308H159.205C159.493 19.956 161.669 21.748 165.765 21.748C167.653 21.748 169.093 21.396 170.085 20.66C171.077 19.956 171.589 18.9 171.589 17.556C171.589 16.468 171.205 15.636 170.469 14.996C169.733 14.356 168.485 13.876 166.757 13.492L163.557 12.82C161.413 12.372 159.813 11.7 158.757 10.772C157.669 9.84401 157.157 8.53201 157.157 6.86801C157.157 4.88401 157.861 3.31601 159.269 2.16401C160.677 1.01201 162.693 0.404011 165.253 0.404011C167.781 0.404011 169.797 1.01201 171.269 2.19601C172.741 3.41201 173.573 5.10801 173.765 7.28401H170.917C170.789 5.84401 170.213 4.75601 169.253 3.98801C168.261 3.22001 166.885 2.83601 165.157 2.83601C163.493 2.83601 162.213 3.18801 161.317 3.82801C160.421 4.50001 159.973 5.42801 159.973 6.61201C159.973 7.54001 160.261 8.27601 160.901 8.82001C161.509 9.36401 162.533 9.78001 163.941 10.068L167.941 10.932C172.293 11.86 174.469 14.004 174.469 17.396C174.469 19.476 173.701 21.14 172.197 22.356C170.693 23.572 168.517 24.18 165.669 24.18ZM177.54 0.916012H186.916C189.188 0.916012 190.98 1.49201 192.292 2.61201C193.572 3.76401 194.244 5.36401 194.244 7.44401C194.244 9.62001 193.572 11.316 192.292 12.468C190.98 13.62 189.156 14.196 186.852 14.196H180.516V23.7H177.54V0.916012ZM180.516 11.604H186.916C188.26 11.604 189.348 11.252 190.116 10.548C190.884 9.84401 191.268 8.82001 191.268 7.47601C191.268 4.85201 189.764 3.50801 186.756 3.50801H180.516V11.604ZM214.054 23.7H210.758L208.358 17.012H198.694L196.23 23.7H193.062L201.894 0.916012H205.254L214.054 23.7ZM202.822 5.78001L199.654 14.42H207.43L204.326 5.78001L203.59 3.41201L202.822 5.78001ZM225.112 24.244C221.944 24.244 219.448 23.156 217.592 20.916C215.736 18.74 214.808 15.86 214.808 12.308C214.808 8.78801 215.736 5.94001 217.624 3.76401C219.48 1.58801 221.944 0.500011 225.08 0.500011C227.448 0.500011 229.528 1.17201 231.32 2.48401C233.048 3.79601 234.072 5.55601 234.456 7.79601H231.416C231.064 6.32401 230.36 5.20401 229.272 4.37201C228.184 3.57201 226.808 3.15601 225.208 3.15601C222.904 3.15601 221.08 3.98801 219.8 5.58801C218.488 7.22001 217.848 9.46001 217.848 12.308C217.848 15.188 218.488 17.46 219.8 19.124C221.08 20.788 222.904 21.588 225.208 21.588C227.032 21.588 228.504 21.076 229.656 20.02C230.808 18.964 231.512 17.428 231.8 15.412H234.744C234.36 18.164 233.304 20.34 231.608 21.908C229.88 23.476 227.736 24.244 225.112 24.244ZM240.613 13.268V21.108H254.053V23.7H237.637V0.916012H253.765V3.50801H240.613V10.676H252.741V13.268H240.613Z" fill="#5A378F"/>
<rect width="84" height="26" transform="translate(64 35.7)" fill="#F9C551"/>
<path d="M76.84 56C73.2 56 71.26 54.36 71.02 51.08H72.8C72.98 53.36 74.34 54.48 76.9 54.48C78.08 54.48 78.98 54.26 79.6 53.8C80.22 53.36 80.54 52.7 80.54 51.86C80.54 51.18 80.3 50.66 79.84 50.26C79.38 49.86 78.6 49.56 77.52 49.32L75.52 48.9C74.18 48.62 73.18 48.2 72.52 47.62C71.84 47.04 71.52 46.22 71.52 45.18C71.52 43.94 71.96 42.96 72.84 42.24C73.72 41.52 74.98 41.14 76.58 41.14C78.16 41.14 79.42 41.52 80.34 42.26C81.26 43.02 81.78 44.08 81.9 45.44H80.12C80.04 44.54 79.68 43.86 79.08 43.38C78.46 42.9 77.6 42.66 76.52 42.66C75.48 42.66 74.68 42.88 74.12 43.28C73.56 43.7 73.28 44.28 73.28 45.02C73.28 45.6 73.46 46.06 73.86 46.4C74.24 46.74 74.88 47 75.76 47.18L78.26 47.72C80.98 48.3 82.34 49.64 82.34 51.76C82.34 53.06 81.86 54.1 80.92 54.86C79.98 55.62 78.62 56 76.84 56ZM82.8687 41.46H94.2488V43.08H89.4888V55.7H87.6287V43.08H82.8687V41.46ZM105.402 54.76C104.422 55.6 103.062 56.02 101.342 56.02C99.6022 56.02 98.2622 55.6 97.3022 54.76C96.3222 53.96 95.8422 52.76 95.8422 51.2V41.46H97.7022V51.26C97.7022 52.26 98.0022 53.04 98.6222 53.56C99.2222 54.1 100.142 54.36 101.342 54.36C102.542 54.36 103.442 54.1 104.062 53.56C104.662 53.04 104.982 52.26 104.982 51.26V41.46H106.842V51.2C106.842 52.76 106.362 53.94 105.402 54.76ZM109.437 41.46H114.577C116.597 41.46 118.137 42.08 119.217 43.32C120.297 44.56 120.837 46.32 120.837 48.58C120.837 50.82 120.257 52.58 119.137 53.82C117.997 55.08 116.337 55.7 114.177 55.7H109.437V41.46ZM111.297 54.08H114.097C115.737 54.08 116.937 53.64 117.737 52.72C118.537 51.82 118.937 50.44 118.937 48.58C118.937 46.72 118.537 45.34 117.757 44.44C116.977 43.54 115.797 43.08 114.197 43.08H111.297V54.08ZM124.755 55.7H122.895V41.46H124.755V55.7ZM133.648 56.04C131.648 56.04 130.048 55.34 128.808 53.94C127.548 52.58 126.928 50.78 126.928 48.58C126.928 46.42 127.548 44.64 128.808 43.26C130.048 41.9 131.648 41.2 133.648 41.2C135.648 41.2 137.268 41.9 138.528 43.26C139.768 44.66 140.388 46.42 140.388 48.58C140.388 50.8 139.768 52.6 138.528 53.96C137.248 55.36 135.628 56.04 133.648 56.04ZM130.168 52.8C131.048 53.86 132.228 54.38 133.668 54.38C135.108 54.38 136.268 53.86 137.168 52.8C138.048 51.76 138.488 50.36 138.488 48.58C138.488 46.84 138.028 45.46 137.148 44.42C136.248 43.38 135.088 42.86 133.668 42.86C132.228 42.86 131.068 43.38 130.168 44.42C129.268 45.46 128.828 46.84 128.828 48.58C128.828 50.34 129.268 51.76 130.168 52.8Z" fill="#1D1F2C"/>
<defs>
<clipPath id="clip0_4037_1623">
<rect width="52" height="62.4" fill="white"/>
</clipPath>
</defs>
</svg>
