<svg width="36" height="36" viewBox="0 0 36 36" fill="none" xmlns="http://www.w3.org/2000/svg">
<g clip-path="url(#clip0_4175_768)">
<path d="M23.6251 12.3751C25.0882 13.8381 26.4522 15.3715 27.679 16.915C28.3299 15.5228 28.6876 13.9816 28.6876 12.3751C28.6876 9.24868 27.3303 6.44068 25.1832 4.48486C23.255 5.31624 21.1175 6.58355 18.9355 8.1923C20.4942 9.42193 22.072 10.8226 23.6251 12.3751Z" fill="white"/>
<path d="M23.6258 30.3749L23.6252 28.6874H22.5002V26.4374H23.6258L23.6252 24.7499H22.5002V22.424C22.5002 22.2119 22.6195 22.0173 22.809 21.9217C24.5781 21.029 26.0164 19.6987 27.0295 18.1018L27.0283 18.1006C27.0328 18.095 27.0368 18.0894 27.0413 18.0838C27.0604 18.0539 27.0818 18.0253 27.1003 17.9949C25.8252 16.3569 24.3829 14.7239 22.8293 13.1703C21.2008 11.5419 19.5814 10.1176 18.0115 8.89307C16.3858 10.1559 14.7501 11.5908 13.1706 13.1703C11.595 14.7459 10.1623 16.3777 8.90234 17.9994C9.91822 19.643 11.3841 21.0099 13.1914 21.9217C13.381 22.0179 13.5002 22.2119 13.5002 22.424V24.7499H12.3752V26.4374H13.5002V28.6874H12.3752V30.3749H14.6758V31.4999C14.9447 33.0935 16.3307 34.3124 18.0002 34.3124C19.6697 34.3124 21.0552 33.0935 21.3246 31.4999V30.3749H23.6258ZM19.1252 15.7499C19.1252 15.6009 19.1843 15.4574 19.29 15.3523L20.9775 13.6648L21.7729 14.4601L20.2502 15.9828V24.7499H19.1252V15.7499ZM14.2275 14.4601L15.0229 13.6648L16.7104 15.3523C16.8162 15.4574 16.8752 15.6009 16.8752 15.7499V24.7499H15.7502V15.9828L14.2275 14.4601Z" fill="white"/>
<path d="M7.32037 12.5993C7.33781 13.4313 7.44975 14.2441 7.64887 15.0276C7.81369 15.6779 8.03756 16.3062 8.31825 16.9069C9.5265 15.3882 10.8872 13.8627 12.3756 12.3743C13.9185 10.8314 15.5025 9.42569 17.0769 8.18313C14.8224 6.51813 12.6923 5.28344 10.8163 4.48413C8.66981 6.44107 7.3125 9.24907 7.3125 12.3749C7.3125 12.4503 7.31869 12.5245 7.32037 12.5993Z" fill="white"/>
<path d="M24.2033 3.68888C22.4523 2.4345 20.3136 1.6875 18.0001 1.6875C15.6814 1.6875 13.5394 2.43788 11.7861 3.69675C13.7262 4.58213 15.8344 5.85281 18.0012 7.47506C20.1471 5.86631 22.2554 4.58213 24.2033 3.68888Z" fill="white"/>
<path d="M35.4377 3.9375C35.4377 2.07619 33.924 0.5625 32.0627 0.5625C30.8061 0.5625 29.7098 1.25381 29.1293 2.27531C28.0178 2.34337 26.7584 2.65837 25.4027 3.18319C25.7335 3.45037 26.053 3.7305 26.3534 4.03087C27.2022 3.73162 28.0032 3.5235 28.7299 3.43237C28.7046 3.59719 28.6877 3.76537 28.6877 3.9375C28.6877 5.79881 30.2014 7.3125 32.0627 7.3125C32.2332 7.3125 32.3991 7.29562 32.5628 7.27144C32.317 9.21037 31.287 11.6904 29.6406 14.3646C29.3605 16.0251 28.7372 17.5843 27.8192 18.9534C28.1595 19.4152 28.4903 19.8765 28.8002 20.3349C28.3845 20.7433 28.1252 21.3103 28.1252 21.9375C28.1252 23.1784 29.1344 24.1875 30.3752 24.1875C30.5957 24.1875 30.805 24.1459 31.0069 24.0862C32.7934 27.7104 33.1185 30.5966 31.858 31.8577C30.6239 33.0913 27.8969 32.8219 24.4206 31.1704C24.217 31.374 23.9357 31.5 23.6252 31.5H22.5947C25.3234 32.9839 27.7202 33.741 29.59 33.741C30.8832 33.741 31.9255 33.3804 32.6534 32.6526C34.3285 30.9774 34.0821 27.7391 31.9778 23.5125C32.3772 23.1069 32.6252 22.5512 32.6252 21.9375C32.6252 20.6966 31.6161 19.6875 30.3752 19.6875C30.1682 19.6875 29.9714 19.7246 29.7807 19.7775C29.3841 19.188 28.9645 18.5957 28.5201 18.0022C31.6802 13.7829 33.55 9.78806 33.73 6.86812C34.7487 6.2865 35.4377 5.19187 35.4377 3.9375Z" fill="white"/>
<path d="M3.3748 14.0625C3.3748 15.3033 4.38392 16.3125 5.6248 16.3125C6.03936 16.3125 6.42411 16.1955 6.75598 15.998C6.38811 14.8471 6.1873 13.6299 6.1873 12.375C6.1873 12.2146 6.20473 12.0594 6.21148 11.9008C6.02361 11.8485 5.82955 11.8125 5.6248 11.8125C5.4043 11.8125 5.19505 11.8541 4.99311 11.9137C3.20661 8.28952 2.88092 5.40333 4.14205 4.14221C5.11348 3.17077 7.08167 3.1404 9.64555 4.03196C9.94198 3.73496 10.2575 3.45708 10.5844 3.19271C7.39105 1.96308 4.77598 1.91808 3.34667 3.34683C1.67155 5.02196 1.91792 8.26027 4.02223 12.4869C3.62286 12.893 3.3748 13.4488 3.3748 14.0625Z" fill="white"/>
<path d="M11.5791 31.1692C9.9675 31.9342 8.50725 32.4089 7.27087 32.5642C7.29562 32.3999 7.3125 32.2334 7.3125 32.0624C7.3125 30.2011 5.79881 28.6874 3.9375 28.6874C3.76538 28.6874 3.59719 28.7043 3.43181 28.7296C3.75919 26.1089 5.50181 22.5927 8.18212 18.9539C7.95375 18.6136 7.74394 18.2609 7.55269 17.8987C4.40269 22.0792 2.45869 26.1337 2.27531 29.129C1.25381 29.7095 0.5625 30.8058 0.5625 32.0624C0.5625 33.9237 2.07619 35.4374 3.9375 35.4374C5.193 35.4374 6.28875 34.7467 6.86981 33.7269C8.67319 33.6144 10.9181 32.8527 13.4061 31.4999H12.375C12.0645 31.4999 11.7827 31.3734 11.5791 31.1692Z" fill="white"/>
</g>
<defs>
<clipPath id="clip0_4175_768">
<rect width="36" height="36" fill="white"/>
</clipPath>
</defs>
</svg>
