<svg width="36" height="36" viewBox="0 0 36 36" fill="none" xmlns="http://www.w3.org/2000/svg">
<g clip-path="url(#clip0_4175_760)">
<path fill-rule="evenodd" clip-rule="evenodd" d="M11.3946 28.2558L10.3018 30.1479C10.025 30.6282 9.40847 30.7932 8.92929 30.5164C8.45123 30.2407 8.28522 29.6211 8.56127 29.1432L9.65372 27.2508C9.93096 26.7705 10.547 26.6055 11.0273 26.8827C11.5064 27.1602 11.6722 27.7756 11.3946 28.2559V28.2558ZM13.6604 28.4031C13.5028 28.3123 13.3303 28.269 13.1596 28.269C12.8122 28.269 12.4736 28.4492 12.288 28.7712L10.5162 31.8395C10.2391 32.319 10.4052 32.9356 10.8843 33.2127C11.3638 33.4899 11.9799 33.3248 12.2568 32.8447L14.0285 29.7764C14.3053 29.2962 14.1403 28.6808 13.6605 28.4032L13.6604 28.4031ZM6.64223 15.8851C6.6828 15.8509 6.67725 15.7921 6.63056 15.7666L4.7523 14.7216C4.61639 14.6468 4.46943 14.6585 4.3473 14.754C1.56968 16.9448 0.0197785 20.8156 0.661802 23.957C0.687325 24.0842 0.757778 24.1702 0.877239 24.2206L2.35092 24.8464C2.40028 24.867 2.45097 24.8347 2.45097 24.7807C2.48718 21.2389 3.93632 18.1632 6.64223 15.885V15.8851ZM16.761 30.5348C16.6911 30.2739 16.5253 30.0574 16.2942 29.9233C16.1367 29.8328 15.9635 29.7895 15.7935 29.7895C15.446 29.7895 15.1074 29.9697 14.921 30.2916L13.4443 32.8501C13.1885 33.3262 13.3562 33.9248 13.8275 34.1965C14.0586 34.33 14.3291 34.3651 14.5896 34.2952C14.8501 34.2252 15.0666 34.0595 15.2007 33.8284L16.6623 31.2968C16.7958 31.0654 16.8309 30.7953 16.761 30.5348ZM27.4813 26.4198L22.7687 23.6983C21.8484 23.1661 20.9898 22.6662 19.8907 22.6662C18.9082 22.6719 18.0195 23.1063 17.1596 23.5269C15.803 24.1895 14.2656 24.9405 12.6059 23.5666C12.1346 23.1755 11.8653 22.5909 11.9018 22.0387C11.9358 21.5322 12.2163 21.0896 12.6922 20.7929L16.5653 18.3789C15.4348 17.8167 14.3941 17.9067 13.2193 18.009C11.6679 18.1428 9.90923 18.2961 7.63779 17.0184L7.19475 16.7689C4.82001 18.8157 3.57281 21.4386 3.4864 24.5695L7.23349 26.5019C7.28672 26.5289 7.33425 26.5651 7.37475 26.6087L8.27489 27.5769L8.76138 26.735C9.32254 25.7632 10.5697 25.4289 11.5425 25.9901C12.0656 26.2921 12.4038 26.7928 12.5173 27.3425C13.05 27.1661 13.6526 27.2086 14.1757 27.5106C14.6991 27.8125 15.0375 28.3133 15.1512 28.863C15.684 28.6866 16.2867 28.7292 16.8096 29.0311C17.2795 29.3023 17.6152 29.7416 17.7565 30.2676C17.7669 30.3063 17.776 30.3449 17.7841 30.3837C18.3169 30.2072 18.92 30.2497 19.4434 30.5515C19.8304 30.7752 20.127 31.1133 20.2984 31.5204L22.5699 32.8312C23.0111 33.0869 23.5841 32.9337 23.8388 32.4919C24.0882 32.0585 23.9463 31.4964 23.5196 31.2354L20.7385 29.6292C20.4922 29.4868 20.4074 29.172 20.5493 28.9253C20.6923 28.6783 21.0075 28.5945 21.2542 28.7365C22.3292 29.3572 23.4042 29.978 24.4793 30.5987C24.9674 30.8809 25.5941 30.7129 25.8759 30.2246C26.154 29.7436 25.9901 29.118 25.5128 28.8343L22.7828 27.2586C22.5369 27.1159 22.452 26.8007 22.5943 26.554C22.737 26.3073 23.0522 26.2232 23.2981 26.3656C24.3597 26.9784 25.4213 27.5913 26.4829 28.2041C26.9689 28.4845 27.5986 28.3161 27.8791 27.83C28.1906 27.2913 27.948 26.7605 27.4813 26.4199V26.4198ZM31.6537 14.754C31.5841 14.7003 31.5078 14.6723 31.4291 14.6723C31.3684 14.6723 31.3074 14.6894 31.2484 14.7216L29.3695 15.7666C29.3436 15.7811 29.3355 15.7932 29.3326 15.8234C29.3298 15.8528 29.3354 15.8659 29.3585 15.8851C32.0644 18.1633 33.5136 21.239 33.5498 24.7808C33.5498 24.8348 33.6005 24.8672 33.6498 24.8465L35.1231 24.2208C35.2423 24.1704 35.3126 24.0838 35.3389 23.9571C35.981 20.8158 34.431 16.9449 31.6537 14.754ZM28.7945 16.7594L27.8724 17.2725C26.3512 18.1186 24.6554 18.2716 22.9685 17.7158C21.475 17.2238 19.9091 17.5088 18.1785 18.5874L13.2376 21.6678C13.0424 21.7899 12.9423 21.9333 12.9306 22.1079C12.915 22.3318 13.0463 22.5923 13.2631 22.7723C14.3578 23.6787 15.2404 23.3171 16.7066 22.6005C17.6255 22.1512 18.6676 21.6426 19.8838 21.6351C21.2123 21.6351 22.1728 22.1629 23.285 22.806L28.0203 25.5407C28.2599 25.6751 28.5757 26.0038 28.7236 26.2393L32.5119 24.4868C32.4059 21.3875 31.1558 18.7896 28.7945 16.7594ZM21.2119 33.238L20.4091 32.7745C20.3643 32.9682 20.2907 33.156 20.1887 33.3327L19.6432 34.2777L20.0737 34.5198C20.8279 34.9549 21.3199 34.7186 21.5303 34.3541C21.7217 34.0223 21.7011 33.5355 21.212 33.238H21.2119ZM18.928 31.4441C18.4492 31.1703 17.8342 31.3292 17.5548 31.8122L16.462 33.7054C16.1854 34.1844 16.3512 34.8016 16.83 35.0782C17.3103 35.3551 17.9256 35.19 18.2029 34.7105L19.2953 32.8173C19.5728 32.3393 19.4049 31.7211 18.928 31.4441ZM10.6249 8.16303C10.6249 4.08975 13.9271 0.787598 18.0004 0.787598C22.0736 0.787598 25.3758 4.08975 25.3758 8.16303C25.3758 12.2363 22.0737 15.5385 18.0004 15.5385C13.927 15.5385 10.6249 12.2364 10.6249 8.16303ZM13.6776 8.19748L15.4011 11.1827C15.5736 11.4814 15.8488 11.6653 16.1909 11.7104C16.5329 11.7554 16.8464 11.649 17.0902 11.4051L22.1627 6.33265C22.5564 5.93897 22.5564 5.29463 22.1627 4.90095C21.769 4.50727 21.1247 4.50727 20.731 4.90095L16.5349 9.09699L15.4312 7.18519C15.1531 6.70362 14.5297 6.53663 14.0482 6.81464C13.566 7.09301 13.3993 7.71535 13.6777 8.19755L13.6776 8.19748ZM28.6413 6.21059C28.7834 4.77854 29.9162 3.64573 31.3483 3.50356C29.9162 3.36139 28.7834 2.22858 28.6413 0.796527C28.4991 2.22858 27.3663 3.36139 25.9342 3.50356C27.3663 3.64573 28.4991 4.77854 28.6413 6.21059ZM6.94725 12.446C7.06354 11.2744 7.9904 10.3475 9.16209 10.2312C7.9904 10.1149 7.06354 9.18804 6.94725 8.01636C6.83095 9.18804 5.90409 10.1149 4.7324 10.2312C5.90409 10.3475 6.83095 11.2744 6.94725 12.446Z" fill="white"/>
</g>
<defs>
<clipPath id="clip0_4175_760">
<rect width="36" height="36" fill="white"/>
</clipPath>
</defs>
</svg>
