<svg width="40" height="40" viewBox="0 0 40 40" fill="none" xmlns="http://www.w3.org/2000/svg">
<path d="M37.2997 3.23053C37.2685 2.94953 37.0375 2.71843 36.7564 2.68721C34.3583 2.39996 31.9727 2.46865 29.662 2.88706C24.8319 3.71518 20.0567 6.3398 16.3538 9.91906C16.0117 10.2446 15.1961 11.0147 14.8674 11.3304C12.9181 13.5837 10.6715 16.5686 9.36555 19.0931C9.17714 19.4756 9.36293 19.766 9.68402 20.0423C9.98375 20.3421 10.5583 20.9104 11.289 21.6411C14.0821 24.441 17.1318 27.4896 19.9447 30.303L20.157 30.5153C20.4534 30.818 20.8754 30.6823 21.1812 30.4653C22.6363 29.6535 24.6285 28.417 26.7268 26.7183C33.8066 21.1737 38.5513 12.3385 37.2997 3.23053ZM29.1749 17.9065C26.0911 21.0593 20.5618 18.775 20.6129 14.3592C20.5717 9.93803 26.0726 7.65761 29.1749 10.8122C31.1358 12.7668 31.1358 15.9518 29.1749 17.9065Z" fill="#EA2B7B"/>
<path d="M3.68871 20.7668C3.71368 20.7668 3.73865 20.7668 3.76365 20.7606L8.24137 20.2173C7.90795 19.5844 8.02357 18.8183 8.41625 18.2251C8.72847 17.6506 9.24057 16.77 9.95252 15.6896C11.1334 13.8481 12.59 12.0888 13.9869 10.45C13.9869 10.45 14.8862 9.59438 14.8862 9.59438C7.40164 9.51989 3.57053 16.099 3.0768 20.0488C3.00503 20.4095 3.31518 20.7788 3.68871 20.7668Z" fill="#EA2B7B"/>
<path d="M27.5137 27.6864C25.7339 29.129 23.8104 30.428 21.787 31.5583C21.2111 31.9533 20.4068 32.0921 19.7698 31.7456C19.7698 31.7457 19.2265 36.2234 19.2265 36.2234C19.1733 36.5796 19.4797 36.9317 19.8448 36.9228C21.0246 36.7503 26.3406 35.6833 29.0687 30.5716C29.9237 28.9678 30.4252 26.8154 30.3989 25.0884C29.4895 25.9984 28.5479 26.8502 27.5137 27.6864Z" fill="#EA2B7B"/>
<path d="M16.5348 28.6607C14.6742 26.7951 12.5317 24.6552 10.7019 22.8215L10.2772 23.6834C9.92124 24.4016 10.0586 25.2696 10.6269 25.8379L14.1492 29.3602C14.722 29.9283 15.5904 30.0732 16.3037 29.7099L17.1655 29.2852C16.9571 29.0776 16.7533 28.8707 16.5348 28.6607Z" fill="#EA2B7B"/>
<path d="M10.6957 29.3163C6.38047 25.4766 2.56487 33.049 2.5022 36.8228C2.46963 37.182 2.80311 37.5166 3.1641 37.4849C6.92701 37.4216 14.4811 33.6268 10.6957 29.3163Z" fill="#EA2B7B"/>
<path d="M25.6277 10.5935C20.6636 10.7227 20.6328 17.9821 25.6278 18.1251C30.6242 17.9787 30.5917 10.7225 25.6277 10.5935Z" fill="#EA2B7B"/>
</svg>
