<svg width="36" height="36" viewBox="0 0 36 36" fill="none" xmlns="http://www.w3.org/2000/svg">
<path fill-rule="evenodd" clip-rule="evenodd" d="M18.0332 1.5C26.0672 1.5 32.5142 8.02898 32.2849 15.9447C32.2838 15.9848 32.2504 16.0165 32.2097 16.0165H31.2347C31.2136 16.0165 31.1955 16.0089 31.1808 15.994C31.1661 15.9792 31.1591 15.9611 31.1597 15.9404C31.1917 14.9141 31.102 13.9039 30.8971 12.922C30.8894 12.885 30.8551 12.86 30.817 12.8633L30.6339 12.8794C30.629 12.8799 30.6249 12.8799 30.6201 12.8794C30.1154 12.832 29.6927 12.6857 29.3554 12.4364C28.6055 11.882 28.6942 11.074 27.8771 10.608C27.0706 10.148 26.2737 10.735 25.3223 10.0069C23.7037 8.76839 25.4753 7.25092 25.0502 4.63562C25.0467 4.61383 25.0351 4.59646 25.0161 4.58469C22.9934 3.33215 20.5994 2.60744 18.0332 2.60744C16.7287 2.60744 15.4687 2.79479 14.2793 3.14345C14.266 3.14738 14.2554 3.15372 14.2459 3.16374C10.6983 6.87738 14.0263 6.08379 13.4438 9.04859C13.2743 9.91139 12.4353 10.8566 12.042 11.7834C11.7465 12.4798 11.6644 13.856 10.7019 13.9659L9.70573 14.0796C9.13819 14.1444 8.61977 13.7586 8.52834 13.2034L8.3237 11.9614C8.26637 11.6135 8.04545 11.342 7.713 11.211L7.59045 11.1628C7.26378 11.0341 6.92098 11.0767 6.63688 11.281C6.17595 11.6125 5.73851 11.9592 5.32355 12.3202C5.31176 12.3305 5.30438 12.3424 5.30048 12.3575C5.03927 13.3746 4.90036 14.4397 4.90036 15.5367C4.90036 15.6717 4.90256 15.8063 4.90672 15.9403C4.90739 15.961 4.90027 15.9791 4.8856 15.9939C4.87093 16.0088 4.85278 16.0164 4.83175 16.0164H3.85671C3.81618 16.0164 3.78259 15.9846 3.78149 15.9446C3.55217 8.02898 9.99908 1.5 18.0332 1.5ZM0.00118769 17.2107L3.89816e-07 18.6504C-0.000338841 19.0036 0.220755 19.3036 0.561851 19.4131L3.19869 20.259C3.22473 20.2673 3.24288 20.2871 3.24873 20.3135C3.46287 21.2809 3.77216 22.2133 4.16728 23.1003C4.1783 23.125 4.17542 23.1515 4.15922 23.1733L2.53049 25.3763C2.3194 25.6619 2.31915 26.0326 2.52973 26.3185L4.34139 28.7776C4.55205 29.0635 4.91002 29.1784 5.25129 29.0695L7.89271 28.227C7.91875 28.2187 7.94529 28.2242 7.96573 28.2421C8.70542 28.8905 9.51041 29.4683 10.3698 29.9649C10.3933 29.9785 10.4068 30.0017 10.4067 30.0286L10.4045 32.7547C10.4041 33.1078 10.6253 33.4079 10.9663 33.5174L13.9002 34.4586C14.2413 34.568 14.5995 34.4537 14.8106 34.1682L16.4434 31.9597C16.4595 31.938 16.4841 31.927 16.5113 31.9297C17.499 32.025 18.4978 32.0251 19.4856 31.93C19.5128 31.9274 19.5375 31.9384 19.5536 31.9602L21.1799 34.1676C21.3904 34.4535 21.7486 34.5683 22.0899 34.4595L25.0254 33.5231C25.3666 33.4143 25.5882 33.1145 25.5886 32.7614L25.5909 30.0306C25.5909 30.0037 25.6044 29.9806 25.6279 29.967C26.4874 29.4706 27.2925 28.893 28.0324 28.2449C28.0528 28.2269 28.0795 28.2215 28.1055 28.2298L30.741 29.0753C31.082 29.1847 31.4403 29.0704 31.6514 28.7849L33.4672 26.3287C33.6783 26.0432 33.6786 25.6725 33.4681 25.3865L31.8404 23.1771C31.8242 23.1553 31.8214 23.1287 31.8324 23.1041C32.2277 22.2172 32.5376 21.285 32.7518 20.3176C32.7576 20.2912 32.7759 20.2714 32.8019 20.263L35.4357 19.423C35.777 19.3141 35.9986 19.0143 35.9988 18.6612L36 17.2108C36.0001 17.1701 35.9663 17.1369 35.925 17.1369H27.9722C27.9311 17.1369 27.8976 17.1697 27.8974 17.2102C27.8573 22.5579 23.4413 26.8809 17.9999 26.8809C12.5585 26.8809 8.14264 22.5579 8.10261 17.2102C8.10235 17.1698 8.06885 17.1369 8.02781 17.1369H0.0761576C0.0348562 17.1369 0.00118769 17.17 0.00118769 17.2107ZM26.6619 17.3404C26.6851 17.336 26.7069 17.3418 26.7248 17.3569C26.7428 17.372 26.752 17.3921 26.7512 17.4153C26.5825 22.6718 21.7063 26.5375 16.4717 25.6262C16.4421 25.6211 16.4197 25.6004 16.4121 25.5718C16.4046 25.5431 16.4142 25.5144 16.4377 25.4957C18.785 23.6353 21.4228 22.1925 24.2685 21.0698C24.5561 20.9564 24.6957 20.6348 24.5805 20.3516C24.4652 20.0685 24.1385 19.931 23.851 20.0445C21.0696 21.1417 18.4753 22.5399 16.1452 24.3162C16.1165 24.338 16.0772 24.3369 16.0499 24.3133C16.0228 24.2899 16.0162 24.252 16.0341 24.2211C18.2464 20.3996 21.9079 18.2426 26.6619 17.3404ZM9.33783 17.3404C12.4421 17.9295 15.0803 19.054 17.1536 20.8272C17.1696 20.8409 17.1783 20.8585 17.1793 20.8794C17.1803 20.9003 17.1735 20.9186 17.1588 20.9337C16.2969 21.8274 15.5368 22.8561 14.8951 24.0341L14.4098 24.925C14.3909 24.9595 14.3481 24.9736 14.3121 24.957C11.3996 23.6237 9.35649 20.7602 9.24861 17.4152C9.24785 17.392 9.25701 17.3718 9.27499 17.3567C9.29288 17.3417 9.31468 17.336 9.33783 17.3404ZM22.635 7.74027C22.635 7.29292 22.2644 6.92806 21.81 6.92806H20.878C20.4236 6.92806 20.053 7.29292 20.053 7.74027L20.0541 18.4938C20.0541 18.5217 20.0686 18.5455 20.0936 18.5587C20.1185 18.5719 20.1467 18.5707 20.1704 18.5554C21.0422 17.9899 21.5659 17.784 22.5877 17.3849C22.6168 17.3736 22.635 17.3472 22.635 17.3163V7.74027ZM16.4549 11.3675V18.8719C16.4549 18.8972 16.4667 18.919 16.488 18.9331C17.0278 19.2911 17.483 19.64 17.9776 20.0655C18.006 20.09 18.0478 20.09 18.0762 20.0655C18.2641 19.904 18.7031 19.5338 18.9421 19.3373C18.9598 19.3228 18.969 19.3033 18.969 19.2806V11.3674C18.969 10.9201 18.5984 10.5552 18.144 10.5552H17.2798C16.8255 10.5553 16.4549 10.9201 16.4549 11.3675ZM15.51 14.7178C15.51 14.2704 15.1394 13.9056 14.685 13.9056H14.1898C13.7354 13.9056 13.3648 14.2704 13.3648 14.7178V17.2776C13.3648 17.3084 13.383 17.3347 13.4121 17.3462C14.094 17.6141 14.758 17.9219 15.3984 18.2743C15.4223 18.2874 15.4494 18.2871 15.473 18.2735C15.4966 18.2599 15.51 18.2368 15.51 18.2098V14.7178H15.51Z" fill="white"/>
</svg>
