<svg width="40" height="40" viewBox="0 0 40 40" fill="none" xmlns="http://www.w3.org/2000/svg">
<path d="M33.7864 11.5032L36.3081 7.55192L38.284 8.81292L35.7623 12.7642L33.7864 11.5032Z" fill="#5A378F"/>
<path d="M26.6167 8.32666L28.1197 3.89245L30.3394 4.64484L28.8364 9.07905L26.6167 8.32666Z" fill="#5A378F"/>
<path d="M18.8267 2.68091H21.1705V7.36867H18.8267V2.68091Z" fill="#5A378F"/>
<path d="M9.66528 4.63257L11.8849 3.88018L13.388 8.31439L11.1683 9.06678L9.66528 4.63257Z" fill="#5A378F"/>
<path d="M1.71216 8.81738L3.68805 7.55637L6.20973 11.5076L4.23384 12.7686L1.71216 8.81738Z" fill="#5A378F"/>
<path d="M30.546 19.088C30.546 20.5162 30.2645 21.8999 29.7286 23.1765C29.7998 23.174 29.8712 23.1726 29.9428 23.1726C31.508 23.1726 32.9795 23.7821 34.0863 24.8889L35.2593 26.0619C37.0351 24.6552 38.6406 23.0744 40 21.406C36.9204 17.8686 32.8722 14.667 28.4319 12.7483C29.8035 14.5641 30.546 16.7673 30.546 19.088Z" fill="#5A378F"/>
<path d="M24.0903 28.8126C22.8121 29.3495 21.427 29.6317 19.9985 29.6317C17.186 29.6317 14.5407 28.5398 12.5498 26.5571C10.5515 24.5671 9.451 21.9145 9.451 19.0881C9.451 16.7645 10.1955 14.5586 11.5707 12.7412C11.0201 12.9801 10.4691 13.2416 9.91791 13.5261C6.47146 15.3057 3.08564 17.8864 0 21.4319C4.95934 27.1452 12.4107 31.9794 19.9986 31.9794C21.5315 31.9794 23.0722 31.7825 24.5941 31.42C24.2298 30.6007 24.0577 29.7073 24.0903 28.8126Z" fill="#5A378F"/>
<path d="M29.9427 25.5166C29.4091 25.5166 28.8939 25.635 28.4264 25.8587L26.5701 24.0024C27.5944 22.6359 28.2021 20.9367 28.2021 19.0882C28.2021 14.5324 24.5131 10.8884 19.9985 10.8884C15.4808 10.8884 11.7949 14.5357 11.7949 19.0882C11.7949 23.644 15.484 27.288 19.9985 27.288C21.8383 27.288 23.5401 26.6829 24.9113 25.6583L26.7706 27.5177C26.1482 28.8243 26.3765 30.4382 27.4567 31.5186L33.2575 37.3194L38.2296 32.3472L32.4288 26.5464C31.7647 25.8823 30.8819 25.5166 29.9427 25.5166ZM19.9985 22.604C18.0599 22.604 16.4827 21.0268 16.4827 19.0882C16.4827 17.1496 18.0599 15.5724 19.9985 15.5724C21.9371 15.5724 23.5143 17.1496 23.5143 19.0882C23.5143 21.0268 21.9371 22.604 19.9985 22.604Z" fill="#5A378F"/>
<path d="M19.9986 20.2601C20.6458 20.2601 21.1705 19.7354 21.1705 19.0882C21.1705 18.441 20.6458 17.9163 19.9986 17.9163C19.3514 17.9163 18.8267 18.441 18.8267 19.0882C18.8267 19.7354 19.3514 20.2601 19.9986 20.2601Z" fill="#5A378F"/>
</svg>
